<svg xmlns="http://www.w3.org/2000/svg" xmlns:xlink="http://www.w3.org/1999/xlink" version="1.1" x="0px" y="0px" viewBox="0 0 100 125" style="enable-background:new 0 0 100 100;" xml:space="preserve"><path d="M78.8,78.9c-1.4,1.4-3.3,1.4-4.8,0L56.8,61.7c-9.1,6.7-21.5,5.7-29.6-2.4c-9.1-9.1-9.1-23.4,0-32.5c9.1-9.1,23.4-9.1,32.5,0  c8.1,8.1,9.1,21,2.4,29.6l17.2,17.2C79.8,75.6,79.8,77.5,78.8,78.9z M54.4,31.6c-6.2-6.2-16.3-6.2-22.9,0c-6.2,6.2-6.2,16.3,0,22.9  c6.2,6.2,16.3,6.2,22.9,0C60.7,48.3,60.7,38.3,54.4,31.6z"/><text x="0" y="115" fill="#000000" font-size="5px" font-weight="bold" font-family="'Helvetica Neue', Helvetica, Arial-Unicode, Arial, Sans-serif">Created by Anusha Narvekar</text><text x="0" y="120" fill="#000000" font-size="5px" font-weight="bold" font-family="'Helvetica Neue', Helvetica, Arial-Unicode, Arial, Sans-serif">from the Noun Project</text></svg>