<svg xmlns="http://www.w3.org/2000/svg" xmlns:xlink="http://www.w3.org/1999/xlink" version="1.1" x="0px" y="0px" viewBox="0 0 100 125" style="enable-background:new 0 0 100 100;" xml:space="preserve"><g><path d="M84.1,58c7.1-5.4,11-12.9,11-21.3c0-8.6-4.1-16.3-11.5-21.7C75.6,9.2,64,6.1,50,6.1c-14,0-25.6,3.1-33.6,8.9   c-2.4,1.8-4.5,3.8-6.2,6c-4.7,5-7,11.1-7,17.6C3.2,48.1,8,56.5,17.4,62c7.5,23.8,28.9,24,28.9,24c-0.8-0.8-1.5-1.5-2.2-2.3   c2.5,0.5,4.1,0.6,4.2,0.6l0.6,0l-0.4-0.4c-5.6-5.5-8-11-9-15.2c2.7,0.3,5.5,0.4,8.5,0.4C64.5,69.1,76.6,64.8,84.1,58z M19.6,60   L19.6,60l-0.1-0.1C10.4,54.4,5.4,46.2,5.4,36.7c0-8.4,4-16,11.3-21.3C24.6,9.6,36.1,6.6,50,6.6s25.4,3.1,33.3,8.8   c7.3,5.3,11.3,12.9,11.3,21.3s-4,16-11.3,21.3c-7.9,5.8-19.4,8.8-33.3,8.8c-3.9,0-7.6-0.2-11.1-0.7l-0.3,0l0,0.3   c0.6,4.4,2.6,10.9,9.1,17.4C44,83.5,26.2,81,19.6,60z"/><rect x="19.6" y="34.2" width="60.8" height="5"/><rect x="19.6" y="24.1" width="60.8" height="5"/><rect x="19.6" y="44.3" width="43.6" height="5"/></g><text x="0" y="115" fill="#000000" font-size="5px" font-weight="bold" font-family="'Helvetica Neue', Helvetica, Arial-Unicode, Arial, Sans-serif">Created by dvdr</text><text x="0" y="120" fill="#000000" font-size="5px" font-weight="bold" font-family="'Helvetica Neue', Helvetica, Arial-Unicode, Arial, Sans-serif">from the Noun Project</text></svg>