<svg xmlns="http://www.w3.org/2000/svg" xmlns:xlink="http://www.w3.org/1999/xlink" version="1.1" x="0px" y="0px" viewBox="0 0 65 81.25" enable-background="new 0 0 65 65" xml:space="preserve"><g><polygon points="39,1.5 39,9.9 47.4,9.9  "/><polygon points="48.4,26.7 36.4,38.3 32.1,43.5 32.8,44.1 29.2,46.1 27.7,51 32.6,49.5 34.6,45.9 35.2,46.6 40.4,42.3 48.4,34    54.3,27.8 50.9,24.4  "/><path d="M35.1,49.3L35.1,49.3L34,51.2l-9.4,2.9l2.7-9H6.7c-0.6,0-1-0.5-1-1c0-0.6,0.5-1,1-1h23.1l2.2-2.6H6.7c-0.6,0-1-0.5-1-1   s0.5-1,1-1h27l1.2-1.4L41,31H6.7c-0.6,0-1-0.5-1-1s0.5-1,1-1h35.4c0.3,0,0.5,0.1,0.7,0.3l5.5-5.3V12H37.9c-0.6,0-1-0.5-1-1V0.5H0.5   v64h47.9V37l-6.6,6.9L35.1,49.3z M6.7,33.6h27c0.6,0,1,0.5,1,1s-0.5,1-1,1h-27c-0.6,0-1-0.5-1-1S6.2,33.6,6.7,33.6z M42.1,24.2   c0.6,0,1,0.5,1,1c0,0.6-0.5,1-1,1H6.7c-0.6,0-1-0.5-1-1c0-0.6,0.5-1,1-1H42.1z M33.3,19.5c0,0.6-0.5,1-1,1H16.6c-0.6,0-1-0.5-1-1   c0-0.6,0.5-1,1-1h15.6C32.8,18.5,33.3,18.9,33.3,19.5z M6.5,6.7h9.4c0.6,0,1,0.5,1,1s-0.5,1-1,1H6.5c-0.6,0-1-0.5-1-1   S5.9,6.7,6.5,6.7z M6.5,11.5h13.9c0.6,0,1,0.5,1,1c0,0.6-0.5,1-1,1H6.5c-0.6,0-1-0.5-1-1C5.5,12,5.9,11.5,6.5,11.5z M21,49.8H6.7   c-0.6,0-1-0.5-1-1c0-0.6,0.5-1,1-1H21c0.6,0,1,0.5,1,1C22,49.3,21.6,49.8,21,49.8z M43.7,59.8h-6.8c-0.6,0-1-0.5-1-1s0.5-1,1-1h6.8   c0.6,0,1,0.5,1,1S44.3,59.8,43.7,59.8z M44.7,54.2c0,0.6-0.5,1-1,1H33.4c-0.6,0-1-0.5-1-1c0-0.6,0.5-1,1-1h10.3   C44.3,53.1,44.7,53.6,44.7,54.2z"/><path d="M64.4,17l-2.7-2.7c-0.1-0.1-0.3-0.1-0.4,0l-9,8.7l3.4,3.4l8.7-9C64.5,17.2,64.5,17.1,64.4,17z"/></g><text x="0" y="80" fill="#000000" font-size="5px" font-weight="bold" font-family="'Helvetica Neue', Helvetica, Arial-Unicode, Arial, Sans-serif">Created by Dinosoft Labs</text><text x="0" y="85" fill="#000000" font-size="5px" font-weight="bold" font-family="'Helvetica Neue', Helvetica, Arial-Unicode, Arial, Sans-serif">from the Noun Project</text></svg>